# xmcd
#
# Track frame offsets:
#	150
#	19440
#	45987
#	66185
#	88780
#	123987
#	149982
#
# Disc length: 2463 seconds
#
# Revision: 1
# Processed by: cddbd v1.5.2PL0 Copyright (c) Steve Scherf et al.
# Submitted via: audiograbber 1.83.01
#
DISCID=66099d07
DTITLE=Ron Escheté - Stump Jumper (1986)
DYEAR=1986
DGENRE=Jazz
TTITLE0=Tiger Street
TTITLE1=Stump Jumper
TTITLE2=We're All Alone
TTITLE3=Etouffé
TTITLE4=Montegut Shuffle
TTITLE5=The Trouble With Hello Is Goodbye
TTITLE6=Theriot Landing
EXTD=
EXTT0=
EXTT1=
EXTT2=
EXTT3=
EXTT4=
EXTT5=
EXTT6=
PLAYORDER=
